<svg xmlns="http://www.w3.org/2000/svg" xmlns:svg="http://www.w3.org/2000/svg" id="svg4519" width="546.133" height="546.133" version="1.1" viewBox="0 0 512 512"><metadata id="metadata4524"/><g id="layer1" transform="translate(0,-540.36216)"><g id="g4467" transform="matrix(20.50952,0,0,20.859456,-526.58031,-94.042799)"><g id="g4382" transform="matrix(0.59473169,0,0,0.59473169,31.04719,102.48374)"><g id="g4496"><path style="opacity:1;fill:#03a9f4;fill-opacity:1;stroke:none;stroke-width:1.10000002;stroke-miterlimit:4;stroke-dasharray:none;stroke-dashoffset:0;stroke-opacity:1" id="path4162" d="m 29.166669,-109.50348 c 1.200386,2.08567 1.17988,17.183595 -0.02617,19.265993 -1.206046,2.082397 -14.291486,9.613601 -16.697919,9.610333 -2.406432,-0.0033 -15.4713664,-7.56999 -16.671752,-9.655655 -1.2003857,-2.085666 -1.1798799,-17.183591 0.026167,-19.265991 1.2060467,-2.0824 14.2914862,-9.6136 16.6979192,-9.61033 2.406432,0.003 15.471366,7.56999 16.671752,9.65565 z" transform="rotate(-30,10.993604,-99.259973)"/><rect id="rect4168-1-1" width="8.743" height="8.743" x="2.221" y="-104.918" ry="2.418" style="opacity:1;fill:#fff;fill-opacity:1;stroke:none;stroke-width:2.29999995;stroke-miterlimit:4;stroke-dasharray:none;stroke-dashoffset:0;stroke-opacity:1"/><g id="g4491" transform="translate(0,0.14463441)"><rect style="opacity:1;fill:#fff;fill-opacity:1;stroke:none;stroke-width:2.29999995;stroke-miterlimit:4;stroke-dasharray:none;stroke-dashoffset:0;stroke-opacity:1" id="rect4168-1-1-7" width="8.743" height="8.743" x="9.089" y="-98.734" ry="2.418"/><rect style="opacity:1;fill:#fff;fill-opacity:1;stroke:none;stroke-width:2.29999995;stroke-miterlimit:4;stroke-dasharray:none;stroke-dashoffset:0;stroke-opacity:1" id="rect4168-1-1-7-2" width="8.743" height="8.743" x="9.089" y="-111.39" ry="2.418"/></g></g></g></g></g></svg>