<svg xmlns="http://www.w3.org/2000/svg" xmlns:xlink="http://www.w3.org/1999/xlink" width="210mm" height="297mm" version="1.1" viewBox="0 0 21000 29700" xml:space="preserve" style="shape-rendering:geometricPrecision;text-rendering:geometricPrecision;image-rendering:optimizeQuality;fill-rule:evenodd;clip-rule:evenodd"><defs><style type="text/css">.fil5{fill:#b5b5b5}.fil7{fill:#b4b4b4}.fil9{fill:#b0b1b1}.fil12{fill:#ababab}.fil18{fill:#a8a7a7}.fil2{fill:#a3a3a3}.fil20{fill:#a1a1a2}.fil29{fill:#999a9a}.fil19{fill:#969797}.fil16{fill:#919292}.fil6{fill:#8f8f8f}.fil13{fill:#8b8b8c}.fil24{fill:#818282}.fil14{fill:#7b7b7b}.fil4{fill:#707171}.fil3{fill:#676969}.fil22{fill:#5d5d5d}.fil25{fill:#4e4e4e}.fil15{fill:#4c4c4c}.fil8{fill:#4a4b4b}.fil0{fill:#434444}.fil1{fill:#3e3f3f}.fil11{fill:#3b3b3b}.fil28{fill:#393939}.fil10{fill:#373838}.fil23{fill:#363637}.fil21{fill:#343535}.fil26{fill:#333}.fil27{fill:#2f2f2f}.fil17{fill:#000}</style></defs><g id="图层_x0020_1"><metadata id="CorelCorpID_0Corel-Layer"/><g id="_2177137914464"><g><path d="M6627 9663l1004 -795 278 188c-333,163 -612,354 -831,567 -61,61 -118,123 -170,185l-281 -145z" class="fil0"/></g><g><path d="M7673 8848l1511 -619 -115 429c-409,93 -785,220 -1118,378l-278 -188z" class="fil1"/></g><g><path d="M7966 11674l20 -106c76,-396 155,-804 248,-1193l126 1559 -394 -260z" class="fil2"/></g><g><path d="M8273 10363c39,76 78,152 117,228 113,220 229,447 348,666l-342 633 -123 -1527z" class="fil3"/></g><g><path d="M7420 13144c-233,-136 -441,-285 -618,-443 -12,-12 -24,-23 -36,-35l323 -261 813 -662 -482 1401z" class="fil2"/></g><g><path d="M7456 13165c172,-501 445,-1294 498,-1451l393 260 -890 1192 -1 -1z" class="fil3"/></g><g><path d="M6475 11681l533 44c47,46 91,79 129,97 73,35 160,53 258,53 138,0 270,-34 367,-69l-684 556 -603 -681z" class="fil4"/></g><g><path d="M6443 9415c50,-64 106,-132 176,-214l4 -5 0 -1 510 -421 1 0 24 -19c111,-89 226,-167 343,-231l106 312 -1012 801 -152 -222z" class="fil5"/></g><g><path d="M6738 12637c-182,-181 -407,-424 -576,-721l264 -231 621 702 -309 250z" class="fil6"/></g><g><path d="M10637 7737l0 754 -10 0c-33,1 -67,2 -101,4 -269,12 -476,26 -662,43l773 -801z" class="fil7"/></g><g><path d="M6602 9694l281 146c-195,248 -304,509 -324,777l-318 73 361 -996z" class="fil8"/></g><g><path d="M6444 11638l-207 -907 319 -72c-9,230 38,438 149,652 53,102 153,254 260,370l-521 -43z" class="fil3"/></g><g><path d="M7492 13186l900 -1205 392 -723c487,-265 938,-491 1495,-570l-585 837 -2200 1662 -2 -1z" class="fil5"/></g><g><path d="M9229 8214l988 -100 -414 429c-245,25 -459,56 -654,97 -12,3 -24,6 -36,8l116 -434z" class="fil3"/></g><g><path d="M6628 9139c48,-586 9,-1155 -111,-1607 -41,-156 -107,-300 -170,-440 -35,-77 -69,-152 -98,-225l523 616c190,393 288,871 351,1247l-495 409z" class="fil9"/></g><g><path d="M9632 6554l-48 -185c14,-2 29,-3 43,-3 13,0 26,0 39,2 111,14 199,93 224,200 0,3 1,6 1,9l-259 -23z" class="fil3"/></g><g><polygon points="9763 11559 11553 11559 10657 12328" class="fil10"/></g><g><path d="M9607 13881c-217,-31 -421,-70 -608,-115l-6 -1c-80,-20 -317,-77 -629,-188l630 -357 613 661z" class="fil11"/></g><g><path d="M8314 13560c-280,-103 -543,-221 -782,-352l1447 -1093 0 1067 -665 378z" class="fil3"/></g><g><path d="M9748 11518l585 -837c117,-15 234,-22 350,-22 40,0 81,1 121,2 65,3 89,7 129,13 14,2 30,4 50,7l585 838 -1820 -1z" class="fil3"/></g><g><polygon points="9019 13188 9019 12085 9708 11565 10637 12364 10638 13217 9661 13881" class="fil2"/></g><g><path d="M10670 13968c-61,0 -122,-2 -182,-4 -263,-12 -524,-35 -777,-68l947 -644 943 644c-21,2 -42,4 -63,6 -30,3 -59,6 -88,9 -240,30 -501,57 -780,57z" class="fil11"/></g><g><path d="M5902 10563c69,-482 308,-847 515,-1115l151 221 -366 1012 -300 -118z" class="fil12"/></g><g><path d="M14408 9808c-51,-62 -109,-125 -170,-185 -218,-213 -498,-404 -831,-567l278 -188 1004 795 -281 145z" class="fil8"/></g><g><path d="M13709 8836l106 -312c118,65 233,142 344,231l32 26 0 -1 502 415 0 1 5 5c70,83 125,150 175,214l-151 222 -1013 -801z" class="fil13"/></g><g><path d="M14757 10617c-20,-268 -128,-529 -323,-777l281 -146 357 986 -315 -63z" class="fil14"/></g><g><path d="M14748 9669l151 -221c207,267 445,632 515,1115l-299 118 -367 -1012z" class="fil15"/></g><g><path d="M6143 11880c-159,-292 -244,-599 -259,-936 -5,-113 -1,-228 13,-340l297 117 211 929 -262 230z" class="fil16"/></g><g><path d="M7512 8496l0 -1c0,0 0,1 0,1z" class="fil17"/></g><g><path d="M7537 8507l498 -225 0 0 60 -27 358 -163c4,-1 12,-4 30,-11 64,-25 231,-89 375,-113l314 222 -1530 627 -105 -310z" class="fil18"/></g><g><path d="M7522 8469c-171,-377 -407,-708 -719,-1012l-548 -633 1152 758 590 674 -475 213z" class="fil3"/></g><g><path d="M7433 7551l-2 -1c-338,-219 -926,-599 -1142,-740 828,170 1506,571 2125,1256l-379 172 -602 -687z" class="fil19"/></g><g><path d="M8772 5795c49,-43 111,-65 180,-65 91,0 182,39 243,102l-302 191 -121 -228z" class="fil3"/></g><g><path d="M12119 5834c61,-63 152,-102 243,-102 70,0 132,22 181,65l-121 228 -303 -191z" class="fil3"/></g><g><path d="M9533 7792c298,-48 652,-74 1023,-74 15,0 29,0 44,0l-340 352 -1004 101 277 -379z" class="fil20"/></g><g><path d="M13364 9036c-332,-158 -708,-285 -1118,-378l-114 -429 1511 619 -279 188z" class="fil0"/></g><g><path d="M13081 10375c94,392 173,804 250,1203l19 96 -394 260 125 -1559z" class="fil11"/></g><g><path d="M12577 11257c119,-220 236,-447 349,-668 39,-75 77,-151 116,-226l-123 1527 -342 -633z" class="fil2"/></g><g><path d="M13413 11741c155,125 617,504 814,664l322 261 -36 35c-177,158 -385,307 -618,443l-482 -1403z" class="fil21"/></g><g><path d="M12968 11974l393 -260c53,157 326,950 499,1451l-2 1 -890 -1192z" class="fil3"/></g><g><path d="M13534 11789c106,39 255,82 405,82 92,0 173,-17 240,-49 38,-18 81,-51 129,-97l532 -44 -603 681 -703 -573z" class="fil22"/></g><g><path d="M14268 12387l622 -702 263 231c-168,297 -394,540 -575,721l-310 -250z" class="fil23"/></g><g><path d="M11451 8538c-186,-17 -393,-31 -662,-43 -33,-2 -67,-3 -100,-4l-12 0 0 -755 774 802z" class="fil11"/></g><g><path d="M14350 11681c107,-116 208,-268 261,-370 111,-214 158,-422 148,-653l320 65 -207 915 -522 43z" class="fil24"/></g><g><path d="M11621 11525l-584 -837c603,86 1096,353 1495,570l390 721 901 1207 -1 1 -2201 -1662z" class="fil11"/></g><g><path d="M12202 8648c-12,-2 -24,-5 -36,-8 -194,-41 -408,-72 -654,-97l-414 -429 988 100 116 434z" class="fil25"/></g><g><path d="M14192 8730c64,-376 161,-853 351,-1247l523 -616c-28,73 -62,148 -97,225 -64,140 -130,284 -171,440 -120,452 -159,1021 -111,1607l-495 -409z" class="fil26"/></g><g><path d="M11426 6568l0 0c24,-107 112,-186 224,-200 13,-2 26,-2 38,-2 15,0 29,1 44,3l-48 185 -260 23c0,0 1,-6 2,-9z" class="fil3"/></g><g><polygon points="10658 12355 10658 12355" class="fil17"/></g><g><path d="M12322 13220l630 357c-313,111 -550,168 -630,188l-6 1c-186,45 -390,84 -607,115l613 -661z" class="fil27"/></g><g><path d="M12336 13182l0 -1067 1447 1093c-239,131 -502,250 -782,352l-665 -378z" class="fil26"/></g><g><polygon points="10678 13217 10678 12364 11607 11565 12296 12085 12296 13188 11653 13883" class="fil3"/></g><g><path d="M14910 11650l210 -928 299 -118c14,112 18,227 13,340 -16,337 -101,644 -259,936l-263 -230z" class="fil28"/></g><g><path d="M13803 8496l0 -1c0,0 0,1 0,1z" class="fil17"/></g><g><path d="M12143 8190l313 -221c44,14 91,28 141,43 90,27 183,54 258,85l13 6 0 -1c51,21 259,113 404,176l506 228 -105 311 -1530 -627z" class="fil29"/></g><g><path d="M13319 8256l590 -674 1157 -761 -553 636 0 0c-313,304 -549,635 -720,1012l-474 -213z" class="fil11"/></g><g><path d="M12896 8072c622,-689 1302,-1092 2131,-1262 -216,141 -804,521 -1142,740l-3 1 -602 687 -384 -166z" class="fil19"/></g><g><path d="M11055 8070l-339 -352c14,0 29,0 44,0 371,0 724,26 1023,74l276 379 -1004 -101z" class="fil20"/></g><g><path d="M8878 7933c-173,-336 -366,-799 -326,-1399 15,-221 83,-577 191,-709l122 230 -65 764 379 1327 -301 -213z" class="fil7"/></g><g><path d="M8840 6815l64 -752 318 -200c24,33 38,68 44,105 12,90 -17,176 -44,259 -13,38 -26,77 -35,117 -30,129 -53,240 -54,400l-106 724 -187 -653z" class="fil11"/></g><g><polygon points="9059 7582 9421 7560 9500 7769 9221 8150" class="fil11"/></g><g><path d="M12516 6819l-65 -764 122 -230c107,132 175,488 190,709 40,600 -152,1063 -326,1399l-300 213 379 -1327z" class="fil11"/></g><g><polygon points="11815 7769 11896 7556 12290 7462 12094 8150" class="fil2"/></g><g><path d="M12182 6742c-1,-159 -24,-270 -53,-398 -9,-40 -22,-79 -35,-117 -28,-83 -57,-169 -44,-259 5,-37 20,-72 44,-105l317 200 64 752 -154 539 -139 -612z" class="fil2"/></g><g><path d="M11896 7515c-58,-209 -187,-464 -313,-612 -19,-22 -41,-44 -61,-64 -43,-43 -83,-83 -93,-126 -8,-32 -11,-64 -10,-95l268 -24 598 830 -389 91z" class="fil2"/></g><g><path d="M11721 6572l50 -194c106,33 174,130 240,224 43,62 84,120 133,155l133 588 -556 -773z" class="fil11"/></g><g><path d="M9628 6595l15 0 253 23c2,31 -1,63 -9,95 -10,43 -51,83 -93,126 -21,20 -42,42 -62,64 -126,150 -257,407 -314,617l-349 21 559 -946z" class="fil11"/></g><g><path d="M9172 6756c49,-34 90,-93 133,-154 65,-94 133,-191 240,-224l50 195 -527 892 104 -709z" class="fil2"/></g></g></g></svg>