<svg xmlns="http://www.w3.org/2000/svg" xmlns:svg="http://www.w3.org/2000/svg" id="svg8" width="156.026" height="80.533" version="1.1" viewBox="0 0 41.282 21.308"><metadata id="metadata5"/><g id="layer1" transform="translate(-74.955668,-49.176243)"><g id="text4519" aria-label="WS" style="font-style:normal;font-weight:400;font-size:29.43065453px;line-height:1.25;font-family:sans-serif;letter-spacing:0;word-spacing:0;fill:#1f76b7;fill-opacity:0;stroke:none;stroke-width:.73576635"><path id="path5733" d="m 87.816791,56.210129 q -1.23608,3.943685 -2.501591,7.298761 -1.265511,3.355075 -2.531022,6.533568 H 79.929421 Q 78.369605,65.539593 77.162955,60.53641 75.985735,55.533228 74.955668,49.64713 h 3.00191 q 0.412027,2.295578 0.853484,4.591156 0.441457,2.295578 0.912345,4.473434 0.470888,2.148426 0.941776,4.120268 0.470888,1.971843 0.971206,3.649381 1.177219,-3.090201 2.501591,-6.769012 1.324372,-3.708242 2.472161,-7.651927 h 2.472161 q 1.147789,3.943685 2.501591,7.651927 1.353803,3.678811 2.531022,6.769012 0.470888,-1.648108 0.941776,-3.61995 0.470888,-1.971843 0.912345,-4.120268 0.470888,-2.177856 0.912345,-4.473434 0.441457,-2.325009 0.853484,-4.620587 h 2.913615 q -1.059494,5.886098 -2.266144,10.88928 -1.17722,5.003183 -2.707605,9.506048 H 92.819974 Q 91.525032,66.863965 90.288952,63.50889 89.052871,60.153814 87.816791,56.210129 Z" style="font-style:normal;font-variant:normal;font-weight:400;font-stretch:normal;font-size:29.43048668px;font-family:Ubuntu;-inkscape-font-specification:'Ubuntu, Normal';font-variant-ligatures:normal;font-variant-caps:normal;font-variant-numeric:normal;font-feature-settings:normal;text-align:start;writing-mode:lr-tb;text-anchor:start;fill:#2185d0;fill-opacity:1;stroke-width:.73576635"/><path id="path5735" d="m 108.7621,68.011754 q 4.47344,0 4.47344,-3.060771 0,-0.941775 -0.41203,-1.589246 -0.3826,-0.676901 -1.0595,-1.147789 -0.6769,-0.500318 -1.55981,-0.853484 -0.85349,-0.353166 -1.82469,-0.706332 -1.11836,-0.382596 -2.119,-0.853484 -1.00064,-0.500318 -1.7364,-1.147789 -0.73576,-0.676901 -1.17722,-1.589246 -0.41203,-0.912345 -0.41203,-2.207287 0,-2.678174 1.8247,-4.179129 1.82469,-1.500954 5.03261,-1.500954 1.85412,0 3.35507,0.412026 1.53039,0.382597 2.23672,0.853484 l -0.91234,2.325009 q -0.61804,-0.382596 -1.85412,-0.735762 -1.20665,-0.382597 -2.82533,-0.382597 -0.82406,0 -1.53039,0.176583 -0.70633,0.176583 -1.23608,0.529749 -0.52975,0.353166 -0.85348,0.912345 -0.29431,0.529749 -0.29431,1.265511 0,0.824054 0.32374,1.383233 0.32373,0.559179 0.91234,1.000637 0.58861,0.412026 1.35381,0.765192 0.79462,0.353166 1.7364,0.706332 1.32437,0.529749 2.4133,1.059497 1.11835,0.529749 1.91298,1.265511 0.82405,0.735762 1.26551,1.76583 0.44145,1.000636 0.44145,2.44273 0,2.678174 -1.97184,4.120268 -1.94241,1.442094 -5.5035,1.442094 -1.20665,0 -2.23672,-0.176583 -1.00063,-0.147152 -1.79526,-0.353166 -0.79462,-0.235444 -1.38323,-0.470888 -0.55918,-0.264874 -0.88291,-0.441457 l 0.85348,-2.354439 q 0.6769,0.382596 2.06014,0.853484 1.38323,0.470888 3.3845,0.470888 z" style="font-style:normal;font-variant:normal;font-weight:400;font-stretch:normal;font-size:29.43048668px;font-family:Ubuntu;-inkscape-font-specification:'Ubuntu, Normal';font-variant-ligatures:normal;font-variant-caps:normal;font-variant-numeric:normal;font-feature-settings:normal;text-align:start;writing-mode:lr-tb;text-anchor:start;fill:#2185d0;fill-opacity:1;stroke-width:.73576635"/></g></g></svg>